<svg xmlns="http://www.w3.org/2000/svg" width="1045" height="371" viewBox="0 0 1045 371" fill="none"><path d="M807.439 168.461V225.38C807.439 228.747 804.714 231.473 801.346 231.473H780.595C777.227 231.473 774.502 228.747 774.502 225.38V168.208C774.502 140.488 749.138 126.959 711.743 126.959H596.912C595.004 126.959 593.447 128.516 593.447 130.424V225.38C593.447 228.747 590.722 231.473 587.354 231.473H566.603C563.235 231.473 560.51 228.747 560.51 225.38V107.862C560.51 100.212 566.7 94.0218 574.351 94.0218H711.743C769.266 94.0218 807.439 120.36 807.439 168.48V168.461ZM831.246 127.114H900.896C904.361 127.114 907.164 124.311 907.164 120.846V100.27C907.164 96.8054 904.361 94.0023 900.896 94.0023H831.246C827.781 94.0023 824.978 96.8054 824.978 100.27V120.846C824.978 124.311 827.781 127.114 831.246 127.114ZM925.521 231.473H946.097C949.562 231.473 952.365 228.67 952.365 225.205V155.555C952.365 152.09 949.562 149.286 946.097 149.286H925.521C922.056 149.286 919.253 152.09 919.253 155.555V225.205C919.253 228.67 922.056 231.473 925.521 231.473ZM1038.62 93.7882H966.108C964.2 93.7882 962.643 92.2309 962.643 90.3232V17.8116C962.643 14.4439 959.918 11.7186 956.55 11.7186H935.507C932.14 11.7186 929.414 14.4439 929.414 17.8116V93.9245C929.414 112.203 944.228 127.036 962.526 127.036H1038.64C1042.01 127.036 1044.73 124.311 1044.73 120.944V99.9006C1044.73 96.5329 1042.01 93.8076 1038.64 93.8076L1038.62 93.7882ZM376.165 231.473H431.702C489.225 231.473 527.398 199.568 527.398 151.467V100.115C527.398 96.7471 524.673 94.0218 521.305 94.0218H500.554C497.187 94.0218 494.461 96.7471 494.461 100.115V151.739C494.461 179.459 469.097 198.536 431.702 198.536H376.165C338.517 198.536 313.406 178.933 313.406 151.739V100.115C313.406 96.7471 310.681 94.0218 307.313 94.0218H286.562C283.194 94.0218 280.469 96.7471 280.469 100.115V151.467C280.469 199.568 318.642 231.473 376.165 231.473ZM7.29983 231.57H25.0335C29.063 231.57 32.3334 228.3 32.3334 224.27V128.107C32.3334 126.199 33.8906 124.642 35.7983 124.642H153.744C190.146 124.642 214.849 142.979 214.849 169.959V224.27C214.849 228.3 218.119 231.57 222.148 231.57H239.629C243.659 231.57 246.929 228.3 246.929 224.27V170.213C246.929 123.377 209.768 92.5618 153.744 92.5618H35.7983C33.8906 92.5618 32.3334 91.0045 32.3334 89.0968V7.29983C32.3334 3.27032 29.063 0 25.0335 0H7.5529C3.52339 0 0.25307 3.27032 0.25307 7.29983V92.5618H0V224.27C0 228.3 3.27032 231.57 7.29983 231.57Z" fill="url(#paint0_linear_29_27)"></path><path d="M805.239 305.697C805.239 302.972 803.156 301.064 800.606 301.064C798.056 301.064 795.973 302.972 795.973 305.697C795.973 308.423 798.056 310.428 800.606 310.428C803.156 310.428 805.239 308.423 805.239 305.697Z" fill="#201E4B"></path><path d="M2.5498 305.892V369.43H8.91523V342.333H21.724C36.6352 342.333 43.1758 334.429 43.1758 324.151C43.1758 313.873 36.4405 305.892 21.724 305.892H2.5498ZM36.6352 324.151C36.6352 331.977 32.4499 336.882 21.724 336.882H8.91523V311.245H21.724C32.4499 311.245 36.6352 315.975 36.6352 324.151Z" fill="#201E4B"></path><path d="M107.804 342.061C107.804 329.427 98.8882 319.052 84.3469 319.052C69.8057 319.052 59.9948 328.785 59.9948 344.591C59.9948 360.398 70.2729 370.131 84.3469 370.131C96.8053 370.131 104.806 363.045 107.064 353.682H100.329C98.5184 360.32 92.7759 364.778 84.3275 364.778C75.0616 364.778 66.9636 358.685 66.4186 347.044H107.59C107.765 345.311 107.765 344.046 107.765 342.041L107.804 342.061ZM66.4381 341.885C67.1583 330.342 75.0811 324.522 84.0744 324.522C93.0678 324.522 101.613 330.342 101.341 341.885H66.4381Z" fill="#201E4B"></path><path d="M130.248 319.791V369.43H136.614V341.71C136.614 329.252 143.602 325.534 151.875 325.534H153.608V318.896C145.062 318.896 139.339 322.536 136.614 328.629V319.811H130.248V319.791Z" fill="#201E4B"></path><path d="M182.067 369.43V325.164H193.611V319.811H182.067V316.365C182.067 309.182 184.793 306.087 193.241 306.087V300.636C180.705 300.636 175.702 305.736 175.702 316.365V319.811H168.791V325.164H175.702V369.43H182.067Z" fill="#201E4B"></path><path d="M236.339 319.071C222.44 319.071 211.52 328.804 211.52 344.61C211.52 360.417 222.148 370.15 236.144 370.15C250.141 370.15 261.139 360.339 261.139 344.61C261.139 328.882 250.316 319.071 236.32 319.071H236.339ZM236.144 364.602C226.684 364.602 217.963 358.237 217.963 344.61C217.963 330.984 226.781 324.618 236.242 324.618C245.702 324.618 254.598 330.984 254.598 344.61C254.598 358.237 245.508 364.602 236.144 364.602Z" fill="#201E4B"></path><path d="M283.681 319.791V369.43H290.046V341.71C290.046 329.252 297.035 325.534 305.308 325.534H307.04V318.896C298.495 318.896 292.772 322.536 290.046 328.629V319.811H283.681V319.791Z" fill="#201E4B"></path><path d="M406.221 369.43V340.348C406.221 325.806 397.5 318.896 386.501 318.896C378.598 318.896 371.318 322.984 368.593 331.082C365.595 322.808 358.509 318.896 350.236 318.896C343.228 318.896 336.96 322.069 333.787 328.356V319.811H327.422V369.45H333.787V342.547C333.787 330.459 340.055 324.463 349.146 324.463C358.237 324.463 363.784 330.108 363.784 341.107V369.469H370.053V342.567C370.053 330.478 376.418 324.483 385.411 324.483C394.405 324.483 399.953 330.128 399.953 341.126V369.488H406.221V369.43Z" fill="#201E4B"></path><path d="M478.012 369.43V319.791H471.647V330.692C468.824 324.424 462.011 319.052 452.005 319.052C438.379 319.052 428.276 328.96 428.276 344.513C428.276 360.067 438.36 370.15 451.908 370.15C461.816 370.15 468.727 364.778 471.627 358.432V369.43H477.993H478.012ZM453.212 364.602C442.759 364.602 434.758 357.05 434.758 344.513C434.758 331.977 442.759 324.599 453.212 324.599C463.666 324.599 471.666 332.23 471.666 344.591C471.666 356.952 463.393 364.583 453.212 364.583V364.602Z" fill="#201E4B"></path><path d="M526.736 318.896C519.378 318.896 513.012 322.069 509.839 328.259V319.811H503.474V369.45H509.839V342.353C509.839 330.264 516.302 324.444 525.568 324.444C534.834 324.444 540.654 330.089 540.654 341.087V369.45H546.922V340.367C546.922 325.826 538.007 318.915 526.736 318.915V318.896Z" fill="#201E4B"></path><path d="M593.097 324.522C601.467 324.522 607.463 328.882 609.098 335.968H615.911C613.633 325.689 605.555 319.052 593.097 319.052C579.1 319.052 569.017 328.862 569.017 344.591C569.017 360.32 579.1 370.131 593.097 370.131C605.555 370.131 613.633 363.123 615.911 353.234H609.098C607.365 360.515 601.467 364.778 593.097 364.778C583.364 364.778 575.46 358.062 575.46 344.591C575.46 331.121 583.364 324.502 593.097 324.502V324.522Z" fill="#201E4B"></path><path d="M683.439 342.061C683.439 329.427 674.524 319.052 659.982 319.052C645.441 319.052 635.63 328.785 635.63 344.591C635.63 360.398 645.908 370.131 659.982 370.131C672.441 370.131 680.441 363.045 682.699 353.682H675.964C674.154 360.32 668.411 364.778 659.963 364.778C650.697 364.778 642.599 358.685 642.054 347.044H683.225C683.4 345.311 683.4 344.046 683.4 342.041L683.439 342.061ZM642.073 341.885C642.794 330.342 650.716 324.522 659.71 324.522C668.703 324.522 677.249 330.342 676.976 341.885H642.073Z" fill="#201E4B"></path><path d="M776.059 311.167V305.892H741.701V369.43H748.067V340.152H771.699V334.877H748.067V311.167H776.059Z" fill="#201E4B"></path><path d="M803.779 319.792H797.414V369.43H803.779V319.792Z" fill="#201E4B"></path><path d="M829.144 319.791V369.43H835.509V341.71C835.509 329.252 842.497 325.534 850.771 325.534H852.503V318.896C843.957 318.896 838.234 322.536 835.509 328.629V319.811H829.144V319.791Z" fill="#201E4B"></path><path d="M877.595 332.424C877.595 328.064 881.78 324.521 888.418 324.521C895.951 324.521 900.059 328.706 900.409 334.254H906.775C906.23 324.716 899.241 319.071 888.593 319.071C877.945 319.071 871.132 325.163 871.132 332.522C871.132 351.151 900.954 343.968 900.954 356.251C900.954 360.981 896.964 364.797 889.859 364.797C881.761 364.797 877.03 360.884 876.505 355.433H869.964C870.782 364.524 878.685 370.15 889.956 370.15C900.234 370.15 907.222 364.232 907.222 356.251C906.95 338.712 877.595 345.895 877.595 332.444V332.424Z" fill="#201E4B"></path><path d="M952.034 325.164V319.811H938.388V307.353H931.925V319.811H925.015V325.164H931.925V355.979C931.925 365.887 936.558 369.43 945.201 369.43H952.015V363.98H946.194C940.471 363.98 938.369 362.072 938.369 355.979V325.164H952.015H952.034Z" fill="#201E4B"></path><defs><linearGradient id="paint0_linear_29_27" x1="0" y1="115.785" x2="1044.71" y2="115.785" gradientUnits="userSpaceOnUse"><stop stop-color="#5C4AFF"></stop><stop offset="0.32" stop-color="#4678E9"></stop><stop offset="1" stop-color="#12E6B5"></stop></linearGradient></defs></svg>