<?xml version="1.0" encoding="UTF-8"?>
<svg id="Layer_2" data-name="Layer 2" xmlns="http://www.w3.org/2000/svg" viewBox="0 0 66.75 88.62">
  <defs>
    <style>
      .cls-1 {
        fill: #f4f2e9;
      }
    </style>
  </defs>
  <g id="Layer_1-2" data-name="Layer 1">
    <g>
      <path class="cls-1" d="M44.06,67.86H13.88l25.77-37.93c.6-1.14,1.67-3.16,1.67-4.37,0-.64-1.29-2.49-3.74-2.49-1.84,0-5.09,1.16-10.2,6.67l-2.75,2.97-2.86-2.86c-4.25-4.25-7.26-7.3-8.94-9.06-1.68-1.76-3.77-3.95-1.67-6.65l2.12-2.71.21.12c2.33-2.47,6.04-6.06,9.39-7.78,4.41-2.52,9.01-3.76,14.01-3.76,2.91,0,5.68.3,8.48.93,12.34,3.31,20.27,13.24,20.27,25.33,0,3.95-.66,7.27-2.07,10.45-1.22,3.51-5.56,9.75-6.42,10.97-3.32,4.94-12.55,19.35-12.64,19.5l-.44.69ZM19.54,64.86h22.88c1.89-2.95,9.32-14.53,12.25-18.89,1.86-2.63,5.2-7.72,6.08-10.29l.05-.13c1.25-2.8,1.83-5.75,1.83-9.29,0-10.69-7.06-19.49-17.99-22.42-2.52-.56-5.08-.84-7.77-.84-4.46,0-8.57,1.11-12.58,3.4-3.42,1.76-7.38,5.81-9.44,8.07l-.82.9-.03-.02-.49.63c-.38.49-.51.66,1.47,2.73,1.66,1.74,4.65,4.77,8.89,9.01l.66.66.63-.68c4.75-5.13,8.81-7.63,12.4-7.63,3.8,0,6.74,2.95,6.74,5.49,0,1.83-1.02,3.9-2.06,5.85l-.08.14-22.63,33.31Z"/>
      <path class="cls-1" d="M66.75,88.62H0l15.91-23.76h50.83v23.76ZM5.62,85.62h58.13v-17.76H17.51l-11.89,17.76Z"/>
    </g>
  </g>
</svg>