<?xml version="1.0" encoding="UTF-8"?>
<svg id="Layer_2" data-name="Layer 2" xmlns="http://www.w3.org/2000/svg" viewBox="0 0 75.13 90.65">
  <defs>
    <style>
      .cls-1 {
        fill: #f4f2e9;
      }
    </style>
  </defs>
  <g id="Layer_1-2" data-name="Layer 1">
    <g>
      <path class="cls-1" d="M36.16,90.65c-18.75,0-30.26-15.96-33.34-20.85l-2.82-4.47,22.49-6.04,1.6,1.9c.05.06,5.69,6.53,12.71,6.53s10.55-5.72,10.55-9.85c0-2.89-1.08-5.03-3.4-6.71l-.12-.1c-.51-.46-1.11-.95-1.29-1.05-.02,0-.04-.02-.05-.03l11.75-20.97,4.16,2.69c5.63,3.76,13.12,10.51,13.12,25.74,0,3.69-.58,7.36-1.71,10.91l-.18.46c-2.08,5.05-10.63,21.56-33.48,21.84ZM4.71,67.18l.65,1.03c2.87,4.56,13.58,19.45,30.79,19.45,20.99-.25,28.82-15.35,30.72-19.98l.12-.29c1.03-3.24,1.55-6.58,1.55-9.94,0-13.78-6.72-19.86-11.78-23.24l-1.67-1.08-10.17,14.9c.3.24.61.51.88.75,3.03,2.23,4.57,5.29,4.57,9.09,0,5.39-4.71,12.85-13.55,12.85s-14.95-7.52-15.01-7.6l-.37-.43-16.72,4.49Z"/>
      <path class="cls-1" d="M43.46,50.15l-3.16-.68c-4.49-.98-9.1-1.62-13.69-1.9l-13.72-.86,17.09-21.67-16.08-1.03L15.54,0l59.59,3.58-31.67,46.58ZM18.79,44.07l8.01.5c4.74.3,9.5.96,14.14,1.96l1.18.25L69.68,6.25,18.33,3.17l-1.23,18.03,18.78,1.2-17.09,21.67Z"/>
    </g>
  </g>
</svg>